<?xml version="1.0" standalone="yes"?>
<svg version="1.1" fill="none" stroke="none" xmlns="http://www.w3.org/2000/svg" xmlns:xlink="http://www.w3.org/1999/xlink">
	<g transform="translate(320.000000, 360.000000) scale(-1, 1) translate(-320.000000, -360.000000)" clip-path="url(#p.0)">
		<path fill="#38761d" d="m0 0l640 0l0 720l-640 0z"></path>
		<path fill="#1155cc" d="m0 0l640 0l0 120l-640 0z"></path>
		<path fill="#ffff00" d="m425 120l110 0l0 600l-110 0z"></path>
		<path stroke="#000000" stroke-width="3.0" d="m0 360l640 0"></path>
		<path stroke="#000000" stroke-width="1.0" stroke-dasharray="7,4" d="m299 120l0 600"></path>
		<path stroke="#000000" stroke-width="1.0" stroke-dasharray="7,4" d="m301 120l0 600"></path>
		<!--<path fill="#999999" d="m0 200c57.29384 -11.859619 116.25453 11.307358 148.96599 58.53209c32.711456 47.2247 32.608368 109.02899 -0.260437 156.15042c-32.868835 47.1214 -91.906494 70.10251 -149.16046 58.06247z"></path-->
		<!-- <path fill="#999999" d="m0 260l90 -52l0 170.67l-90 -52z" transform="rotate(-60, 0, 260)"></path> -->
		<!-- <path fill="#999999" d="m55 293.33l90 -52l0 170.67l-90 -52z"></path> -->
		<!-- <path fill="#999999" d="m4.5 390l90 0l0 -53.33l-90 0z" transform="rotate(60, 4.5, 390)"></path> -->
		<path fill="#999999" d="m0 260l55 33.33l0 66.67l-55 33.33z" transform="translate(0,-653.33) scale(3)"></path>
		<path fill="#000000" d="m0 260l55 33.33l0 66.67l-55 33.33z"></path>
	</g>
</svg>
